<?xml version="1.0" encoding="utf-8"?>
<!-- Generator: Adobe Illustrator 16.0.0, SVG Export Plug-In . SVG Version: 6.00 Build 0)  -->
<!DOCTYPE svg PUBLIC "-//W3C//DTD SVG 1.1//EN" "http://www.w3.org/Graphics/SVG/1.1/DTD/svg11.dtd">
<svg version="1.1" id="Layer_1" xmlns="http://www.w3.org/2000/svg" xmlns:xlink="http://www.w3.org/1999/xlink" x="0px" y="0px"
	 width="20px" height="20px" viewBox="0 0 20 20" enable-background="new 0 0 20 20" xml:space="preserve">
<path fill-rule="evenodd" clip-rule="evenodd" fill="#FFFFFF" d="M13.622,10.62c-3.008,4.337-4.583,6.871-4.728,7.601
	c-0.168,0.825-0.974,1.392-2.417,1.698c-1.468,0.288-2.394,0.067-2.779-0.662c-0.625-1.247-1.131-2.236-1.516-2.965
	c-0.698-1.344-1.227-2.227-1.588-2.649c-0.385-0.595-0.577-1.074-0.577-1.439c0-0.403,0.216-0.749,0.649-1.036
	c0.337-0.23,0.782-0.479,1.335-0.749c0.602-0.288,0.974-0.479,1.119-0.576c0.24-0.153,0.553-0.039,0.938,0.345
	c0.554,0.519,0.842,0.787,0.866,0.807c0.313,0.153,1.046,1.036,2.201,2.648l4.619-5.671c3.224-3.839,5.161-5.874,5.81-6.104
	c0.963-0.346,1.648-0.47,2.058-0.375c0.529,0.115,0.433,0.585-0.289,1.411C18.338,4.036,16.437,6.608,13.622,10.62z"/>
</svg>
