<?xml version="1.0" encoding="utf-8"?>
<!-- Generator: Adobe Illustrator 16.0.0, SVG Export Plug-In . SVG Version: 6.00 Build 0)  -->
<!DOCTYPE svg PUBLIC "-//W3C//DTD SVG 1.1//EN" "http://www.w3.org/Graphics/SVG/1.1/DTD/svg11.dtd">
<svg version="1.1" id="Layer_1" xmlns="http://www.w3.org/2000/svg" xmlns:xlink="http://www.w3.org/1999/xlink" x="0px" y="0px"
	 width="20px" height="20px" viewBox="0 0 20 20" enable-background="new 0 0 20 20" xml:space="preserve">
<g>
	<path fill-rule="evenodd" clip-rule="evenodd" fill="#FFFFFF" d="M5.729,5.311C7.097,4.52,8.102,4.423,8.744,5.022
		c0.663,0.62,1.978,2.074,3.945,4.362c1.989,2.331,3.154,3.785,3.496,4.363c0.385,0.662-0.011,1.368-1.187,2.116
		c-1.197,0.771-2.149,0.781-2.854,0.032c-0.3-0.3-1.625-1.817-3.978-4.555C6.134,9.01,4.927,7.706,4.541,7.428
		C3.964,6.808,4.359,6.102,5.729,5.311z"/>
	<path fill-rule="evenodd" clip-rule="evenodd" fill="#FFFFFF" d="M17.552,4.834c-0.972,0.972-2.657,2.835-5.055,5.589
		c-2.786,3.207-4.39,5.2-4.811,5.978C7.2,17.372,6.228,17.762,4.77,17.566c-1.425-0.194-1.685-0.857-0.778-1.992
		c0.356-0.712,2.22-2.835,5.589-6.366c3.532-3.726,5.687-5.719,6.464-5.978c0.875-0.259,1.49-0.227,1.847,0.097
		C18.28,3.684,18.168,4.186,17.552,4.834z"/>
</g>
</svg>
