<?xml version="1.0" encoding="utf-8"?>
<!-- Generator: Adobe Illustrator 16.0.0, SVG Export Plug-In . SVG Version: 6.00 Build 0)  -->
<!DOCTYPE svg PUBLIC "-//W3C//DTD SVG 1.1//EN" "http://www.w3.org/Graphics/SVG/1.1/DTD/svg11.dtd">
<svg version="1.1" id="Layer_1" xmlns="http://www.w3.org/2000/svg" xmlns:xlink="http://www.w3.org/1999/xlink" x="0px" y="0px"
	 width="26px" height="26px" viewBox="0 0 26 26" enable-background="new 0 0 26 26" xml:space="preserve">
<g id="icons_x2F_icon_loading_color">
	<g id="Layer_3_2_">
		<path fill-rule="evenodd" clip-rule="evenodd" fill="#FF6143" d="M25.342,8.979l-12.338,4.018v-13c2.815,0,5.355,0.828,7.62,2.482
			C22.904,4.133,24.477,6.3,25.342,8.979z"/>
		<path fill-rule="evenodd" clip-rule="evenodd" fill="#FCBD30" d="M20.624,23.515l-7.62-10.518l12.338-4.018
			c0.865,2.679,0.865,5.357,0,8.036S22.904,21.86,20.624,23.515z"/>
		<path fill-rule="evenodd" clip-rule="evenodd" fill="#9DE541" d="M13.004,12.997l7.62,10.518c-2.265,1.655-4.805,2.481-7.62,2.481
			s-5.355-0.826-7.62-2.481L13.004,12.997z"/>
		<path fill-rule="evenodd" clip-rule="evenodd" fill="#45BDF5" d="M5.384,23.515c-2.28-1.654-3.853-3.821-4.718-6.5
			s-0.865-5.357,0-8.036l12.338,4.018L5.384,23.515z"/>
		<path fill-rule="evenodd" clip-rule="evenodd" fill="#8130C2" d="M13.004-0.004v13L0.666,8.979c0.865-2.679,2.43-4.846,4.694-6.5
			C7.641,0.824,10.188-0.004,13.004-0.004z"/>
	</g>
</g>
</svg>
